<?xml version="1.0" encoding="UTF-8"?>
<svg version="1.1" xmlns="http://www.w3.org/2000/svg" width="640" height="640">
<path d="M0 0 C211.2 0 422.4 0 640 0 C640 211.2 640 422.4 640 640 C428.8 640 217.6 640 0 640 C0 428.8 0 217.6 0 0 Z " fill="#000000" transform="translate(0,0)"/>
<path d="M0 0 C27.72 0 55.44 0 84 0 C87.63 11.22 91.26 22.44 95 34 C98.11316299 43.38813213 101.24125533 52.77068188 104.39404297 62.14550781 C105.65979824 65.9097204 106.92251049 69.67494489 108.18383789 73.44064331 C108.6820163 74.92583871 109.18134537 76.41064869 109.68188477 77.89505005 C110.38312329 79.97469369 111.08060243 82.05556485 111.77734375 84.13671875 C112.18202881 85.34030029 112.58671387 86.54388184 113.00366211 87.78393555 C113.85228843 90.523204 114.50806955 93.17846788 115 96 C115.66 96 116.32 96 117 96 C117.22429687 95.34515625 117.44859375 94.6903125 117.6796875 94.015625 C119.44167719 89.99119885 121.75222037 86.43939947 124.125 82.75 C124.64924561 81.92717529 125.17349121 81.10435059 125.71362305 80.2565918 C127.47094213 77.50128904 129.23481691 74.75027065 131 72 C133.60463187 67.93779809 136.20872387 63.87525047 138.8125 59.8125 C139.82352783 58.235896 139.82352783 58.235896 140.85498047 56.62744141 C146.16464336 48.33558724 151.40197168 40.00041614 156.60742188 31.64282227 C161.14013226 24.36564058 165.70984771 17.11283011 170.32128906 9.88525391 C170.77858398 9.16515137 171.23587891 8.44504883 171.70703125 7.703125 C172.1038208 7.08083008 172.50061035 6.45853516 172.90942383 5.81738281 C174.03926213 3.9345719 175.01801104 1.96397791 176 0 C203.72 0 231.44 0 260 0 C260 5.29462231 259.8956893 9.73927122 259.16015625 14.87109375 C258.98419922 16.10408203 258.80824219 17.33707031 258.62695312 18.60742188 C258.44068359 19.87134766 258.25441406 21.13527344 258.0625 22.4375 C257.88009766 23.72849609 257.69769531 25.01949219 257.50976562 26.34960938 C256.13127309 35.86872691 256.13127309 35.86872691 255 37 C252.32941149 37.14115161 249.67567762 37.04247107 247 37 C246.90203125 37.87914062 246.8040625 38.75828125 246.703125 39.6640625 C244.25639814 61.05183001 241.35461559 82.36922102 237.875 103.61328125 C236.81890221 110.06286152 235.8940673 116.52599485 235 123 C234.6260906 125.62515557 234.25109692 128.25015694 233.875 130.875 C233.70742188 132.04804688 233.53984375 133.22109375 233.3671875 134.4296875 C233.24601562 135.27789062 233.12484375 136.12609375 233 137 C235.64 137 238.28 137 241 137 C240.35443968 148.79817134 238.60447585 160.23384379 237 172 C215.22 172 193.44 172 171 172 C171.62562178 164.49253869 172.28923187 157.12231146 173.375 149.6875 C173.50583984 148.77943604 173.63667969 147.87137207 173.77148438 146.93579102 C174.7198594 140.51440722 175.92261345 134.19280058 177.25390625 127.83984375 C178.27615532 122.5787399 179.03477509 117.290076 179.80029297 111.98657227 C180.9209431 104.30888021 182.24902074 96.67366318 183.64233398 89.04101562 C184.7176449 83.04196894 185.48583277 77.07308703 186 71 C185.56171875 71.71800781 185.1234375 72.43601562 184.671875 73.17578125 C180.602947 79.81673488 176.48086417 86.42099095 172.3125 93 C168.00001006 99.80800422 163.73301115 106.64230691 159.5 113.5 C154.93590123 120.8922305 150.32820664 128.25469137 145.67993164 135.59423828 C141.40988873 142.34041325 137.16969116 149.10502201 132.9375 155.875 C132.29377441 156.90407471 131.65004883 157.93314941 130.98681641 158.9934082 C130.38144043 159.96238037 129.77606445 160.93135254 129.15234375 161.9296875 C128.61601318 162.78804199 128.07968262 163.64639648 127.52709961 164.53076172 C125.92681927 166.98720199 125.92681927 166.98720199 124.78613281 169.78637695 C123 172 123 172 119.53833008 172.56762695 C118.11515157 172.56683711 116.69181719 172.53868344 115.26953125 172.48828125 C114.14390022 172.47766914 114.14390022 172.47766914 112.99552917 172.46684265 C110.60016905 172.43886657 108.20715253 172.37613009 105.8125 172.3125 C104.18818482 172.28742092 102.56383297 172.26460706 100.93945312 172.24414062 C96.95873329 172.18903043 92.97976385 172.10274233 89 172 C88.82904816 171.47017517 88.65809631 170.94035034 88.48196411 170.39447021 C86.70127519 164.87778552 84.9161385 159.36255449 83.12841797 153.84814453 C82.46191173 151.79024571 81.79653855 149.73197955 81.13232422 147.67333984 C80.17713656 144.7135431 79.21787542 141.75509341 78.2578125 138.796875 C77.96190216 137.87694763 77.66599182 136.95702026 77.3611145 136.00921631 C77.08097504 135.1486261 76.80083557 134.28803589 76.51220703 133.40136719 C76.26793976 132.64635925 76.02367249 131.89135132 75.77200317 131.11346436 C74.99275894 128.9801766 74.02526969 127.02393764 73 125 C72.66466085 123.65598197 72.37458859 122.30004994 72.125 120.9375 C71.41339295 117.50781732 70.45297956 114.32349053 69.21875 111.046875 C66.80258399 104.51271695 64.57898889 97.92079335 62.375 91.3125 C61.78332031 89.55583008 61.78332031 89.55583008 61.1796875 87.76367188 C59.57123724 82.94647203 57.98329321 78.18427246 56.8515625 73.23046875 C56.57054687 72.16441406 56.28953125 71.09835937 56 70 C55.34 69.67 54.68 69.34 54 69 C54.03867187 70.24652344 54.07734375 71.49304688 54.1171875 72.77734375 C54.11495195 78.49923339 53.1454024 83.94691691 52.125 89.5625 C50.69856542 97.72829412 49.46592145 105.85247409 48.50390625 114.0859375 C47.55903146 121.42519753 46.26557575 128.71028365 45 136 C45.99 136 46.98 136 48 136 C46.90314243 148.06543332 44.91408461 160.03697121 43 172 C20.89 172 -1.22 172 -24 172 C-22.875 158.5 -22.875 158.5 -22.02734375 153.796875 C-21.85009766 152.79785156 -21.67285156 151.79882812 -21.49023438 150.76953125 C-21.30783203 149.77308594 -21.12542969 148.77664063 -20.9375 147.75 C-20.75123047 146.70714844 -20.56496094 145.66429687 -20.37304688 144.58984375 C-19.92027555 142.05896816 -19.46255445 139.52910244 -19 137 C-16.03 137 -13.06 137 -10 137 C-9.87367188 135.63875 -9.74734375 134.2775 -9.6171875 132.875 C-8.9510141 126.22729073 -8.04403382 119.61678319 -7.125 113 C-6.94791504 111.71923584 -6.77083008 110.43847168 -6.58837891 109.11889648 C-5.42739374 100.81560175 -4.16256581 92.54235966 -2.7109375 84.28515625 C-0.79786171 73.11678035 0.58198628 61.84899607 2.125 50.625 C2.30856137 49.29166221 2.49215499 47.95832886 2.67578125 46.625 C3.11750236 43.41670986 3.55890445 40.20837619 4 37 C1.03 37 -1.94 37 -5 37 C-4.50833522 24.4133815 -2.09125657 12.54753944 0 0 Z " fill="#FBFCFC" transform="translate(258,218)"/>
<path d="M0 0 C16.41275739 -0.0938346 32.8254265 -0.16416941 49.23838806 -0.20724869 C56.86084003 -0.22779123 64.48312442 -0.25575077 72.10546875 -0.30175781 C78.7564357 -0.34188234 85.40728118 -0.36749302 92.05836582 -0.37635398 C95.57347741 -0.3815259 99.08824175 -0.39350321 102.60324097 -0.42292023 C123.65323326 -0.59208976 145.68330406 -0.58996816 162.1171875 14.8125 C173.29646343 27.80087037 175.20643885 40.43075033 174 57 C172.45556016 69.02624729 167.10835729 81.12326456 158.07421875 89.40625 C150.83578483 94.96798454 143.92605916 98.34329757 135 100 C135.33209473 100.60360352 135.66418945 101.20720703 136.00634766 101.82910156 C153 132.75130073 153 132.75130073 153 137 C157.95 137 162.9 137 168 137 C167.27818859 148.83770707 165.61682195 160.14330572 164 172 C144.53 172 125.06 172 105 172 C102.36 166.72 99.72 161.44 97 156 C95.21904331 152.59753867 93.43041802 149.2017035 91.625 145.8125 C87.7029031 138.38309661 83.9376482 130.89134586 80.3125 123.3125 C79.87824707 122.40927002 79.44399414 121.50604004 78.99658203 120.57543945 C78.60196777 119.74230225 78.20735352 118.90916504 77.80078125 118.05078125 C77.45184814 117.31512939 77.10291504 116.57947754 76.7434082 115.8215332 C76 114 76 114 76 112 C67.75 112 59.5 112 51 112 C50.67 115.63 50.34 119.26 50 123 C49.6488737 125.75273505 49.28312771 128.49394406 48.87890625 131.23828125 C48.77408432 131.96637497 48.66926239 132.69446869 48.56126404 133.44462585 C48.2310221 135.73431456 47.89687756 138.023412 47.5625 140.3125 C47.34283261 141.83003959 47.12343023 143.34761757 46.90429688 144.86523438 C46.49456011 147.70116927 46.08310728 150.53684462 45.67016602 153.37231445 C44.77115311 159.58025236 43.8870932 165.7903476 43 172 C20.89 172 -1.22 172 -24 172 C-22.84966216 153.59459459 -22.84966216 153.59459459 -21.4375 145.5 C-21.29892578 144.66597656 -21.16035156 143.83195313 -21.01757812 142.97265625 C-20.68556231 140.98056139 -20.34393626 138.99007143 -20 137 C-16.7 137 -13.4 137 -10 137 C-9.82984375 135.78570312 -9.6596875 134.57140625 -9.484375 133.3203125 C-8.07788851 123.34839248 -6.61031488 113.38849577 -5.0625 103.4375 C-3.6384746 94.28003649 -2.29212919 85.11447457 -1 75.9375 C0.83314054 62.93049734 2.87720828 49.96257921 5 37 C1.7 37 -1.6 37 -5 37 C-4.61826133 28.31215445 -3.79065831 19.78774455 -2.5 11.1875 C-2.36940186 10.3099707 -2.23880371 9.43244141 -2.10424805 8.52832031 C-1.13287202 2.26574405 -1.13287202 2.26574405 0 0 Z " fill="#FBFBFB" transform="translate(59,218)"/>
<path d="M0 0 C25.08 0 50.16 0 76 0 C73.69932432 18.40540541 73.69932432 18.40540541 72.375 27.5 C72.2409375 28.42941406 72.106875 29.35882813 71.96875 30.31640625 C71.64717454 32.54446482 71.32379891 34.77226347 71 37 C67.7 37 64.4 37 61 37 C60.93941406 37.81082031 60.87882813 38.62164062 60.81640625 39.45703125 C60.55044165 42.97185574 60.27591285 46.48594333 60 50 C59.9278125 50.96550781 59.855625 51.93101562 59.78125 52.92578125 C59.42959939 57.26489856 58.95048401 61.51014677 58.12109375 65.78515625 C56.70220887 73.42876426 55.61564333 81.12029958 54.5 88.8125 C54.28532644 90.28192592 54.07048347 91.75132709 53.85546875 93.22070312 C52.86880147 99.97431117 51.89666367 106.72959121 50.9453125 113.48828125 C50.18781024 118.80413336 49.33721 124.09266345 48.375 129.375 C48.2409375 130.12265625 48.106875 130.8703125 47.96875 131.640625 C47.64803253 133.42747946 47.32436957 135.2138049 47 137 C49.64 137 52.28 137 55 137 C53.33333333 148.66666667 51.66666667 160.33333333 50 172 C25.58 172 1.16 172 -24 172 C-24 166 -24 166 -23 164 C-22.72376582 162.39520234 -22.49074613 160.78283475 -22.28125 159.16796875 C-22.15363281 158.20439453 -22.02601563 157.24082031 -21.89453125 156.24804688 C-21.76433594 155.23806641 -21.63414062 154.22808594 -21.5 153.1875 C-21.24102971 151.20163376 -20.98065886 149.21594957 -20.71875 147.23046875 C-20.60466797 146.34770264 -20.49058594 145.46493652 -20.37304688 144.55541992 C-20.00207339 142.01420299 -19.52630402 139.51321463 -19 137 C-16.03 137 -13.06 137 -10 137 C-9.94666504 136.33572998 -9.89333008 135.67145996 -9.83837891 134.98706055 C-9.26303048 128.21396396 -8.40857413 121.52939097 -7.375 114.8125 C-7.0185587 112.46108472 -6.66318371 110.10950767 -6.30859375 107.7578125 C-6.2101265 107.10590439 -6.11165924 106.45399628 -6.01020813 105.78233337 C-5.07231742 99.54399206 -4.17821062 93.29958141 -3.28515625 87.0546875 C-2.82320189 83.8379644 -2.3608854 80.62129352 -1.89849854 77.40463257 C-1.5941259 75.28053227 -1.29131928 73.1562069 -0.99017334 71.03164673 C0.63313298 59.58888004 2.31928045 48.25217669 5 37 C3.700625 37.020625 2.40125 37.04125 1.0625 37.0625 C-0.29165633 37.08399454 -1.64756083 37.07148199 -3 37 C-3.495 36.505 -3.495 36.505 -4 36 C-4 24 -4 24 0 0 Z " fill="#FBFBFB" transform="translate(533,218)"/>
<path d="M0 0 C5.71082747 -0.07443429 11.4213694 -0.12873634 17.13256836 -0.16479492 C19.07337364 -0.17983491 21.0141452 -0.20027214 22.95483398 -0.22631836 C25.75252632 -0.26291295 28.54976733 -0.27977448 31.34765625 -0.29296875 C32.2083522 -0.30845261 33.06904816 -0.32393646 33.95582581 -0.33988953 C40.91281802 -0.34181122 45.60820791 0.86265388 50.9375 5.625 C53.61916598 10.0131807 53.890004 12.98960712 53 18 C51.29311623 23.66540146 49.18327509 27.83946641 44 31 C39.16235109 33.57182674 34.44086108 33.25551911 29.10546875 33.1953125 C28.15811356 33.1924826 27.21075836 33.18965271 26.23469543 33.18673706 C23.21883334 33.17557187 20.20327184 33.15047389 17.1875 33.125 C15.13867617 33.11496547 13.08984768 33.10584045 11.04101562 33.09765625 C6.02722852 33.07564449 1.01366517 33.04113971 -4 33 C-4.07392824 28.1207359 -3.92956298 23.57737786 -3.125 18.75 C-2.85429688 17.09677734 -2.85429688 17.09677734 -2.578125 15.41015625 C-2.38734375 14.28480469 -2.1965625 13.15945313 -2 12 C-1.80921875 10.84371094 -1.6184375 9.68742187 -1.421875 8.49609375 C-0.95360579 5.66306504 -0.47950909 2.83114411 0 0 Z " fill="#020202" transform="translate(121,257)"/>
<path d="M0 0 C0.99 0.99 1.98 1.98 3 3 C1.68 5.31 0.36 7.62 -1 10 C-3.16264785 7.83735215 -3.82246387 7.01811422 -4 4 C-2.0625 1.75 -2.0625 1.75 0 0 Z " fill="#0D0E0D" transform="translate(381,296)"/>
<path d="M0 0 C1.03159626 3.09478879 0.97482862 4.52631393 0.5625 7.6875 C0.46066406 8.49574219 0.35882813 9.30398438 0.25390625 10.13671875 C0.17011719 10.75160156 0.08632813 11.36648438 0 12 C-0.45375 11.525625 -0.9075 11.05125 -1.375 10.5625 C-2.93258204 8.90972192 -2.93258204 8.90972192 -5 8 C-3.35 5.36 -1.7 2.72 0 0 Z " fill="#2F2F2F" transform="translate(444,287)"/>
<path d="M0 0 C0.99 0.33 1.98 0.66 3 1 C3 2.32 3 3.64 3 5 C3.66 5 4.32 5 5 5 C5.33 6.65 5.66 8.3 6 10 C5.34 10 4.68 10 4 10 C3.32845067 8.71086513 2.66291141 7.41859796 2 6.125 C1.62875 5.40570313 1.2575 4.68640625 0.875 3.9453125 C0 2 0 2 0 0 Z " fill="#F4F4F4" transform="translate(137,334)"/>
<path d="M0 0 C0.66 0.33 1.32 0.66 2 1 C0.77065985 4.68802044 -0.93859378 5.72356973 -4 8 C-4.66 7.34 -5.32 6.68 -6 6 C-5.195625 5.38125 -4.39125 4.7625 -3.5625 4.125 C-0.96125481 2.25835959 -0.96125481 2.25835959 0 0 Z " fill="#E1E1E1" transform="translate(171,281)"/>
</svg>
